<?xml version="1.0" standalone="no"?>
<!DOCTYPE svg PUBLIC "-//W3C//DTD SVG 20010904//EN"
 "http://www.w3.org/TR/2001/REC-SVG-20010904/DTD/svg10.dtd">
<svg version="1.0" xmlns="http://www.w3.org/2000/svg"
 width="425.000000pt" height="425.000000pt" viewBox="0 0 425.000000 425.000000"
 preserveAspectRatio="xMidYMid meet">

<g transform="translate(0.000000,425.000000) scale(0.100000,-0.100000)"
fill="#000000" stroke="none">
<path d="M290 2570 l0 -800 745 0 745 0 0 125 0 125 -600 0 -600 0 0 150 0
150 425 0 425 0 0 125 0 125 -425 0 -425 0 0 275 0 275 600 0 600 0 0 125 0
125 -745 0 -745 0 0 -800z"/>
<path d="M1880 3245 l0 -125 375 0 375 0 0 -675 0 -675 125 0 125 0 0 675 0
675 150 0 150 0 0 -675 0 -675 125 0 125 0 0 675 0 675 330 0 330 0 0 125 0
125 -1105 0 -1105 0 0 -125z"/>
<path d="M1530 2570 l0 -500 125 0 125 0 0 400 0 400 250 0 250 0 0 -550 0
-550 125 0 125 0 0 650 0 650 -500 0 -500 0 0 -500z"/>
<path d="M620 1520 l0 -150 120 0 120 0 0 75 0 75 -75 0 c-73 0 -75 -1 -75
-25 0 -23 3 -25 50 -25 47 0 50 -2 50 -25 0 -24 -2 -25 -75 -25 l-75 0 0 100
0 100 100 0 100 0 0 25 0 25 -120 0 -120 0 0 -150z"/>
<path d="M910 1520 l0 -150 25 0 c20 0 25 5 25 25 0 24 2 25 75 25 73 0 75 -1
75 -25 0 -20 5 -25 25 -25 l25 0 0 150 0 150 -125 0 -125 0 0 -150z m200 25
l0 -75 -75 0 -75 0 0 75 0 75 75 0 75 0 0 -75z"/>
<path d="M1210 1520 l0 -150 25 0 25 0 0 125 0 125 25 0 25 0 0 -125 0 -125
25 0 25 0 0 125 0 125 25 0 25 0 0 -125 0 -125 25 0 25 0 0 150 0 150 -125 0
-125 0 0 -150z"/>
<path d="M1510 1520 l0 -150 25 0 25 0 0 150 0 150 -25 0 -25 0 0 -150z"/>
<path d="M1610 1520 l0 -150 25 0 25 0 0 125 0 125 75 0 75 0 0 -125 0 -125
25 0 25 0 0 150 0 150 -125 0 -125 0 0 -150z"/>
<path d="M1910 1520 l0 -150 125 0 125 0 0 75 0 75 -75 0 c-73 0 -75 -1 -75
-25 0 -23 3 -25 50 -25 47 0 50 -2 50 -25 0 -24 -2 -25 -75 -25 l-75 0 0 100
0 100 100 0 100 0 0 25 0 25 -125 0 -125 0 0 -150z"/>
<path d="M2310 1520 l0 -150 25 0 25 0 0 125 0 125 25 0 25 0 0 -125 0 -125
25 0 25 0 0 125 0 125 25 0 25 0 0 -125 0 -125 25 0 25 0 0 150 0 150 -125 0
-125 0 0 -150z"/>
<path d="M2610 1520 l0 -150 125 0 125 0 0 25 0 25 -100 0 -100 0 0 25 c0 24
2 25 75 25 73 0 75 1 75 25 0 24 -2 25 -75 25 l-75 0 0 50 0 50 100 0 100 0 0
25 0 25 -125 0 -125 0 0 -150z"/>
<path d="M2910 1520 l0 -150 125 0 125 0 0 25 0 25 -100 0 -100 0 0 25 c0 24
2 25 75 25 73 0 75 1 75 25 0 24 -2 25 -75 25 l-75 0 0 50 0 50 100 0 100 0 0
25 0 25 -125 0 -125 0 0 -150z"/>
<path d="M3210 1645 c0 -23 3 -25 50 -25 l50 0 0 -125 0 -125 25 0 25 0 0 125
0 125 50 0 c47 0 50 2 50 25 l0 25 -125 0 -125 0 0 -25z"/>
<path d="M3510 1570 l0 -100 100 0 100 0 0 -25 0 -25 -100 0 -100 0 0 -25 0
-25 130 0 130 0 0 75 0 75 -105 0 -105 0 0 50 0 50 105 0 105 0 0 25 0 25
-130 0 -130 0 0 -100z"/>
<path d="M620 1170 c0 -143 1 -150 20 -150 19 0 20 7 20 125 l0 125 25 0 25 0
0 -125 0 -125 25 0 25 0 0 125 0 125 25 0 25 0 0 -125 0 -125 25 0 25 0 0 150
0 150 -120 0 -120 0 0 -150z"/>
<path d="M910 1170 l0 -150 125 0 125 0 0 150 0 150 -125 0 -125 0 0 -150z
m200 0 l0 -100 -75 0 -75 0 0 100 0 100 75 0 75 0 0 -100z"/>
<path d="M1210 1170 l0 -150 100 0 100 0 0 25 c0 20 5 25 25 25 l25 0 0 100 0
100 -25 0 c-20 0 -25 5 -25 25 l0 25 -100 0 -100 0 0 -150z m200 0 l0 -100
-75 0 -75 0 0 100 0 100 75 0 75 0 0 -100z"/>
<path d="M1510 1170 l0 -150 125 0 125 0 0 25 0 25 -100 0 -100 0 0 25 c0 24
2 25 75 25 73 0 75 1 75 25 0 24 -2 25 -75 25 l-75 0 0 50 0 50 100 0 100 0 0
25 0 25 -125 0 -125 0 0 -150z"/>
<path d="M1810 1170 l0 -150 25 0 c23 0 25 3 25 50 l0 50 75 0 75 0 0 -50 c0
-47 2 -50 25 -50 23 0 25 3 25 50 0 47 -2 50 -25 50 -20 0 -25 5 -25 25 0 20
5 25 25 25 24 0 25 2 25 75 l0 75 -125 0 -125 0 0 -150z m200 50 l0 -50 -75 0
-75 0 0 50 0 50 75 0 75 0 0 -50z"/>
<path d="M2110 1170 l0 -150 25 0 25 0 0 125 0 125 75 0 75 0 0 -125 0 -125
25 0 25 0 0 150 0 150 -125 0 -125 0 0 -150z"/>
<path d="M2510 1170 l0 -150 125 0 125 0 0 25 0 25 -100 0 -100 0 0 100 0 100
100 0 100 0 0 25 0 25 -125 0 -125 0 0 -150z"/>
<path d="M2860 1220 l0 -50 -50 0 c-47 0 -50 -2 -50 -25 0 -23 3 -25 50 -25
l50 0 0 -50 c0 -47 2 -50 25 -50 23 0 25 3 25 50 l0 50 50 0 c47 0 50 2 50 25
0 23 -3 25 -50 25 l-50 0 0 50 c0 47 -2 50 -25 50 -23 0 -25 -3 -25 -50z"/>
<path d="M3160 1220 l0 -50 -50 0 c-47 0 -50 -2 -50 -25 0 -23 3 -25 50 -25
l50 0 0 -50 c0 -47 2 -50 25 -50 23 0 25 3 25 50 l0 50 50 0 c47 0 50 2 50 25
0 23 -3 25 -50 25 l-50 0 0 50 c0 47 -2 50 -25 50 -23 0 -25 -3 -25 -50z"/>
</g>
</svg>
